<?xml version="1.0" encoding="utf-8"?>
<!-- Svg Vector Icons : http://www.onlinewebfonts.com/icon -->
<!DOCTYPE svg PUBLIC "-//W3C//DTD SVG 1.1//EN" "http://www.w3.org/Graphics/SVG/1.1/DTD/svg11.dtd">
<svg version="1.1" xmlns="http://www.w3.org/2000/svg" xmlns:xlink="http://www.w3.org/1999/xlink" x="0px" y="0px" viewBox="0 0 1000 1000" enable-background="new 0 0 1000 1000" xml:space="preserve">
<metadata> Svg Vector Icons : http://www.onlinewebfonts.com/icon </metadata>
<g><g transform="translate(0.000000,511.000000) scale(0.100000,-0.100000)"><path d="M387.2,4246.7c-98.3-50.4-156.2-103.3-211.6-194L100,3931.8V110v-3821.7l75.6-120.9c55.4-90.7,113.4-143.6,211.6-194l133.5-70.5H5000h4479.3l133.5,70.5c98.3,50.4,156.2,103.3,211.6,194l75.6,120.9V110v3821.8l-75.6,120.9c-55.4,90.7-113.4,143.6-211.6,194l-133.5,70.5H5000H520.7L387.2,4246.7z M9514.5,3941.8l83.1-73.1l7.5-619.7l7.6-619.7H5000H387.2l7.6,619.7l7.6,619.7l83.1,73.1l80.6,73.1H5000h4433.9L9514.5,3941.8z M9605.2-660.9l-7.5-2987.9l-83.1-73l-80.6-73.1H4997.5H561l-85.7,85.7l-85.7,85.6v2975.3V2327H5000h4610.3L9605.2-660.9z"/><path d="M6148.8,3425.4c-78.1-75.6-80.6-115.9-20.1-191.5c42.8-50.4,65.5-55.4,282.2-52.9c257,5,327.5,35.3,327.5,141.1c0,120.9-55.4,151.2-299.8,158.7C6224.4,3490.9,6209.3,3488.4,6148.8,3425.4z"/><path d="M7267.4,3435.4c-60.5-60.5-65.5-158.7-10.1-211.6c30.2-30.2,95.8-40.3,284.7-40.3c272.1,0,304.8,15.1,304.8,141.1s-70.5,161.2-320,161.2C7350.5,3485.8,7310.2,3478.3,7267.4,3435.4z"/><path d="M8390.9,3425.4c-78.1-75.6-80.6-115.9-20.1-188.9c37.8-45.4,73.1-52.9,274.6-58c196.5-5,239.3,2.5,282.2,40.3c60.4,55.4,68,136,17.6,206.6c-30.2,40.3-73,50.4-264.5,55.4C8466.5,3490.9,8451.4,3488.4,8390.9,3425.4z"/><path d="M4659.9,1820.6C2795.6,1583.8,1712.3-366.2,2533.6-2016.3C3103-3160,4430.6-3762.1,5685.3-3442.2c1624.9,415.7,2491.6,2133.8,1839.1,3645.4C7390.8,513.1,7222,762.5,6965,1019.5C6362.9,1629.1,5506.4,1926.4,4659.9,1820.6z M5231.8,1427.6c138.6-126,246.9-299.8,355.2-574.4c143.6-365.3,269.6-1027.9,269.6-1423.4v-126H5000h-856.6v126c0,188.9,47.9,584.5,103.3,851.5c103.3,501.3,264.5,876.7,476.1,1095.9c136,138.6,146.1,143.6,272.1,143.6C5110.9,1520.8,5138.6,1510.7,5231.8,1427.6z M4279.5,1296.6C4050.2,913.7,3863.8,142.7,3833.6-545l-5-138.6l-604.6-7.5c-332.5-2.5-617.2,0-632.3,5c-20.2,7.5-20.2,57.9-5,171.3c83.1,624.8,468.6,1244.5,1002.7,1607.3c221.7,151.2,634.9,345.1,748.2,350.2C4355.1,1445.2,4327.3,1379.7,4279.5,1296.6z M5808.7,1397.4c599.6-204.1,1103.5-644.9,1380.6-1199.2c158.7-322.5,292.2-856.6,219.2-884.3c-15.1-5-299.8-7.6-632.3-5l-604.6,7.5l-5,138.6c-32.8,723-226.7,1499-473.6,1889.5c-35.3,55.4-52.9,100.8-42.8,100.8C5662.6,1445.2,5733.1,1425.1,5808.7,1397.4z M3841.1-1172.3c0-362.8,115.9-1012.7,249.4-1398.2c30.2-80.6,103.3-244.4,166.3-360.3c126-239.3,141.1-231.8-183.9-108.3c-375.4,146.1-740.7,415.7-1000.2,743.2c-249.4,312.4-453.5,801.1-498.8,1191.6l-12.6,105.8h639.9h639.9V-1172.3z M5856.6-1134.5c0-188.9-68-690.3-126-937.2c-163.8-700.4-448.4-1143.8-730.6-1143.8c-393,0-783.5,891.8-846.5,1939.8l-17.6,277.1H4995h861.6V-1134.5z M7413.5-1152.1c-35.3-264.5-93.2-456-221.7-715.5c-262-539.1-718-962.4-1264.7-1171.5c-320-120.9-307.4-136-156.2,168.8c214.1,433.3,350.2,995.1,380.4,1577.1l15.1,294.8h634.9h634.9L7413.5-1152.1z"/></g></g>
</svg>